<svg id="Ver_Detalles" data-name="Ver Detalles" xmlns="http://www.w3.org/2000/svg" xmlns:xlink="http://www.w3.org/1999/xlink" viewBox="0 0 1024 334.97"><defs><style>.cls-1{fill:#ddd;}.cls-2{fill:url(#linear-gradient);}.cls-3{fill:#202328;}</style><linearGradient id="linear-gradient" y1="167.48" x2="1024" y2="167.48" gradientUnits="userSpaceOnUse"><stop offset="0" stop-color="#f5030d"/><stop offset="0.19" stop-color="#e52c1b"/><stop offset="0.58" stop-color="#c67d36"/><stop offset="0.86" stop-color="#b3af46"/><stop offset="1" stop-color="#abc34d"/></linearGradient></defs><rect class="cls-1" width="1024" height="334.97" rx="57.27"/><path class="cls-2" d="M995,335H29A29,29,0,0,1,0,306V29A29,29,0,0,1,29,0H995a29,29,0,0,1,29,29V306A29,29,0,0,1,995,335ZM29,13.8A15.22,15.22,0,0,0,13.8,29V306A15.22,15.22,0,0,0,29,321.17H995A15.22,15.22,0,0,0,1010.2,306V29A15.22,15.22,0,0,0,995,13.8Z"/><path class="cls-3" d="M148.09,109.21l29.54,73.84,28.22-73.84H224l-47.09,111-47.08-111Z"/><path class="cls-3" d="M253.07,216.68q-10.51,0-18.13-4.17A28.89,28.89,0,0,1,223.25,201a33.92,33.92,0,0,1-4.1-16.74,30.46,30.46,0,0,1,4.61-16.45A34.11,34.11,0,0,1,236.11,156a34.48,34.48,0,0,1,17.26-4.39q12.27,0,20.4,7.09t10.89,20l-47.82,16.52a18.28,18.28,0,0,0,6.95,6.58,19.64,19.64,0,0,0,9.58,2.34,21.14,21.14,0,0,0,7.6-1.39,29.33,29.33,0,0,0,6.87-3.72l6.73,11a43.12,43.12,0,0,1-10.31,4.89A36,36,0,0,1,253.07,216.68Zm-19.15-30.27L268,174a21.39,21.39,0,0,0-5.63-7.46q-3.74-3.21-10-3.21A17.38,17.38,0,0,0,239,168.94q-5.19,5.63-5.19,14.4A29.92,29.92,0,0,0,233.92,186.41Z"/><path class="cls-3" d="M314.34,154.1l1.17,14.47a28.85,28.85,0,0,1,7-9.06,35.22,35.22,0,0,1,9.14-5.85,21.29,21.29,0,0,1,8.11-2l-.73,14.62A20.57,20.57,0,0,0,327,168.87a22.12,22.12,0,0,0-8.12,8.18A21.77,21.77,0,0,0,316,188v27.2H301.18V154.1Z"/><path class="cls-3" d="M379.41,215.22v-106H408.8q15.79,0,26.76,4.75a48.75,48.75,0,0,1,17.84,12.72,51,51,0,0,1,10,17.62,61.88,61.88,0,0,1,3.15,19.3A53.25,53.25,0,0,1,462.39,185a47.24,47.24,0,0,1-11.55,16.31A52.2,52.2,0,0,1,434,211.63a56.11,56.11,0,0,1-20,3.59Zm15.21-14.77H411a45.74,45.74,0,0,0,20.47-4.39,33.57,33.57,0,0,0,14.11-12.86q5.19-8.47,5.19-20.62a41.11,41.11,0,0,0-3.29-17.18,35,35,0,0,0-8.7-12,36.2,36.2,0,0,0-12.13-7.08A41.36,41.36,0,0,0,412.89,124H394.62Z"/><path class="cls-3" d="M515.1,216.68q-10.53,0-18.13-4.17A29,29,0,0,1,485.27,201a33.91,33.91,0,0,1-4.09-16.74,30.46,30.46,0,0,1,4.6-16.45,34.44,34.44,0,0,1,29.61-16.16q12.29,0,20.4,7.09t10.89,20l-47.81,16.52a18.21,18.21,0,0,0,6.95,6.58,19.6,19.6,0,0,0,9.57,2.34,21.16,21.16,0,0,0,7.61-1.39,29.73,29.73,0,0,0,6.87-3.72l6.73,11a43,43,0,0,1-10.32,4.89A36,36,0,0,1,515.1,216.68ZM496,186.41,530,174a21.24,21.24,0,0,0-5.62-7.46q-3.74-3.21-10-3.21A17.38,17.38,0,0,0,501,168.94q-5.19,5.63-5.19,14.4A29.92,29.92,0,0,0,496,186.41Z"/><path class="cls-3" d="M569.06,127.34H584v26.9h16.39V165.8H584v49.42h-14.9V165.8H558.23V154.24h10.83Z"/><path class="cls-3" d="M642.16,216.68A33.37,33.37,0,0,1,626.51,213a27,27,0,0,1-11.1-10.74q-4.1-7.09-4.09-17.62c0-6.83,1.42-12.7,4.31-17.62A30.52,30.52,0,0,1,627,155.63a30.86,30.86,0,0,1,15.42-4q8.49,0,14,3.44a28,28,0,0,1,8.78,8.26l1-9.21h13.59v61.12H665.12v-9.65a32.12,32.12,0,0,1-4.83,4.68,31.51,31.51,0,0,1-7.74,4.53A26.63,26.63,0,0,1,642.16,216.68Zm4-12.13a19.72,19.72,0,0,0,12.36-3.88,18.21,18.21,0,0,0,6.65-10.6V177.49a18.67,18.67,0,0,0-7.09-9.94,20.25,20.25,0,0,0-12.36-4A18.88,18.88,0,0,0,629,173.33a20.89,20.89,0,0,0-2.64,10.59,20.63,20.63,0,0,0,2.7,10.53,20.36,20.36,0,0,0,7.24,7.39A18.82,18.82,0,0,0,646.11,204.55Z"/><path class="cls-3" d="M703,101.61h14.77V215.22H703Z"/><path class="cls-3" d="M740.85,101.61h14.78V215.22H740.85Z"/><path class="cls-3" d="M807.39,216.68q-10.53,0-18.13-4.17A29,29,0,0,1,777.56,201a33.91,33.91,0,0,1-4.09-16.74,30.46,30.46,0,0,1,4.6-16.45A34.11,34.11,0,0,1,790.42,156a34.51,34.51,0,0,1,17.26-4.39q12.29,0,20.4,7.09t10.89,20l-47.81,16.52a18.33,18.33,0,0,0,6.94,6.58,19.64,19.64,0,0,0,9.58,2.34,21.14,21.14,0,0,0,7.6-1.39,29.33,29.33,0,0,0,6.87-3.72l6.74,11a43,43,0,0,1-10.32,4.89A35.94,35.94,0,0,1,807.39,216.68Zm-19.16-30.27L822.3,174a21.27,21.27,0,0,0-5.63-7.46q-3.72-3.21-10-3.21a17.38,17.38,0,0,0-13.38,5.63q-5.19,5.63-5.19,14.4A30,30,0,0,0,788.23,186.41Z"/><path class="cls-3" d="M873.19,216.53a34.82,34.82,0,0,1-12.87-2.41,27.92,27.92,0,0,1-10.38-7l6.28-8.48a29,29,0,0,0,8,5.56,18.91,18.91,0,0,0,7.83,1.9,15.86,15.86,0,0,0,7.45-1.68,5.86,5.86,0,0,0,3.22-5.63,6.1,6.1,0,0,0-2.12-5,18,18,0,0,0-5.34-2.93c-2.14-.78-4.43-1.5-6.87-2.19q-15.65-5.12-15.65-18a18.41,18.41,0,0,1,2.42-9.14,18,18,0,0,1,7.38-7,25.47,25.47,0,0,1,12.29-2.71,40.2,40.2,0,0,1,11.54,1.54,26.84,26.84,0,0,1,9.51,5.19l-5.71,8.92a17.8,17.8,0,0,0-6.21-4,20.7,20.7,0,0,0-6.51-1.53,12.73,12.73,0,0,0-6.87,1.82,5.55,5.55,0,0,0-2.92,4.9,5.92,5.92,0,0,0,3.37,5.92,50.9,50.9,0,0,0,8,3.29c.39.1.81.22,1.25.37s.9.32,1.39.51a32.7,32.7,0,0,1,11.18,6q4.47,3.81,4.46,11.12a20.46,20.46,0,0,1-2.63,10.23,19.13,19.13,0,0,1-8,7.53Q881.37,216.53,873.19,216.53Z"/></svg>