<svg id="Gestionar_Compra" data-name="Gestionar Compra" xmlns="http://www.w3.org/2000/svg" viewBox="0 0 1024 150.68"><defs><style>.cls-1{fill:#202328;}.cls-2{fill:#fff;}</style></defs><rect class="cls-1" width="1024" height="150.68" rx="7.62"/><path class="cls-2" d="M128.34,197h-8.23a31.06,31.06,0,0,1-.9-6.58c-3,4.34-8.58,7.5-17.65,7.5C84.42,198,75,185,75,168.14,75,150.38,85.14,137,103.52,137c14.71,0,23.57,8.2,25.09,18.46H117.52c-1.49-4.87-5.18-9.62-14.17-9.62-12.7,0-16.84,10.43-16.84,21.8C86.51,178.51,91,189,103.29,189c11.73,0,14.18-8,14.18-14.92v-.56H103.24v-9.2h25.1Z" transform="translate(0 -92.14)"/><path class="cls-2" d="M181.28,170.78H152.6v17.06h31.58L182.84,197h-41V137.87h40.77v9.19h-30v14.52h28.68Z" transform="translate(0 -92.14)"/><path class="cls-2" d="M201.71,180c1.44,6.34,5.9,9.36,13.34,9.36,7.65,0,10.83-3.26,10.83-8,0-5.2-2.88-7.71-13.59-10.24-15.36-3.65-19.64-9.13-19.64-17.23,0-9.79,7.29-16.85,21-16.85,15.15,0,21.25,8.34,22.08,16.69H224.55c-.77-4.19-3.22-8.27-11.19-8.27-5.88,0-9.33,2.52-9.33,7.21s2.8,6.46,12.63,8.78c17.1,4.07,20.6,10.53,20.6,18.61,0,10.37-7.8,17.81-23,17.81-15,0-22.36-7.65-23.71-17.85Z" transform="translate(0 -92.14)"/><path class="cls-2" d="M259.66,147.06H241.3v-9.19h47.81v9.19H270.79v50H259.66Z" transform="translate(0 -92.14)"/><path class="cls-2" d="M308.33,137.87V197H297.24V137.87Z" transform="translate(0 -92.14)"/><path class="cls-2" d="M376.38,167.2c0,16.4-9.63,30.69-28.64,30.69-18.17,0-27.89-13.49-27.89-30.44,0-17.12,10.45-30.44,28.67-30.44C365.6,137,376.38,149.27,376.38,167.2Zm-45,0c0,12,5.57,21.56,16.82,21.56,12.19,0,16.71-10.14,16.71-21.4,0-11.73-5.14-21.2-16.84-21.2S331.35,155.3,331.35,167.19Z" transform="translate(0 -92.14)"/><path class="cls-2" d="M387.92,197V137.87h14c7.77,13.47,23.07,39.3,26,45.74H428c-.64-6.66-.61-16.61-.61-26.3V137.87h10.16V197H424.36c-6.85-12-23.4-40.94-26.59-47.71h-.15c.43,5.72.52,17.14.52,27.76V197Z" transform="translate(0 -92.14)"/><path class="cls-2" d="M462.31,182,457.09,197H446.15l20.43-59.16h13.87L501.75,197h-11.7L484.61,182Zm19.79-9.2c-4.69-13.53-7.51-21.61-8.89-26.65h-.08c-1.46,5.55-4.59,15.08-8.36,26.65Z" transform="translate(0 -92.14)"/><path class="cls-2" d="M520.79,172.53V197H509.91V137.87h25c12.64,0,19.43,6.93,19.43,16.1,0,7.85-4.36,12.27-9.11,14,3.58,1.15,7.93,4.39,7.93,14.87v2.79c0,4,0,8.76.82,11.43H543.41c-1-2.56-1.15-7.06-1.15-13.09v-1c0-7.14-1.89-10.41-11.79-10.41Zm0-8.95h11.46c7.7,0,10.84-2.92,10.84-8.45,0-5.31-3.47-8.31-10.34-8.31h-12Z" transform="translate(0 -92.14)"/><path class="cls-2" d="M636.05,179.29c-2.46,10.7-10.5,18.55-24.84,18.55-18.39,0-27.28-13.33-27.28-30.13,0-16.16,9.08-30.7,27.79-30.7,15.13,0,22.75,8.81,24.3,18.7h-11.1c-1.54-5.21-5.09-9.86-13.58-9.86-11.4,0-15.91,10.3-15.91,21.48,0,10.55,4.06,21.67,16.25,21.67,8.62,0,11.72-5.47,13.21-9.71Z" transform="translate(0 -92.14)"/><path class="cls-2" d="M700.6,167.2c0,16.4-9.62,30.69-28.64,30.69-18.17,0-27.89-13.49-27.89-30.44,0-17.12,10.46-30.44,28.67-30.44C689.82,137,700.6,149.27,700.6,167.2Zm-45,0c0,12,5.57,21.56,16.83,21.56,12.18,0,16.71-10.14,16.71-21.4,0-11.73-5.14-21.2-16.84-21.2S655.57,155.3,655.57,167.19Z" transform="translate(0 -92.14)"/><path class="cls-2" d="M762.06,173.8c0-10.4.14-21.66.4-28.19h-.37c-2.7,11.22-9.87,32.88-15.92,51.42H736.6c-4.59-15.83-12-40.34-14.63-51.57h-.35c.48,6.91.72,19.41.72,29.56v22h-10.2V137.87h16.52c5.34,16.45,11.55,37.32,13.42,45.69h.11c1.42-7.06,9-29.6,14.65-45.69h16V197H762.06Z" transform="translate(0 -92.14)"/><path class="cls-2" d="M787.68,137.87h23.78c12.21,0,20.52,6.85,20.52,17.94,0,12.4-9.24,18.37-20.88,18.37H798.8V197H787.68Zm11.12,27.35h11.11c6.67,0,10.81-2.85,10.81-9.18s-4.58-9.22-10.52-9.22H798.8Z" transform="translate(0 -92.14)"/><path class="cls-2" d="M853,172.53V197H842.09V137.87h25c12.64,0,19.43,6.93,19.43,16.1,0,7.85-4.36,12.27-9.11,14,3.58,1.15,7.93,4.39,7.93,14.87v2.79c0,4-.05,8.76.82,11.43H875.59c-1.05-2.56-1.15-7.06-1.15-13.09v-1c0-7.14-1.89-10.41-11.79-10.41Zm0-8.95h11.46c7.7,0,10.84-2.92,10.84-8.45,0-5.31-3.47-8.31-10.34-8.31H853Z" transform="translate(0 -92.14)"/><path class="cls-2" d="M909.55,182,904.33,197H893.39l20.43-59.16h13.87L949,197h-11.7L931.84,182Zm19.79-9.2c-4.69-13.53-7.51-21.61-8.89-26.65h-.08c-1.46,5.55-4.59,15.08-8.36,26.65Z" transform="translate(0 -92.14)"/></svg>