<svg id="Layer_1" data-name="Layer 1" xmlns="http://www.w3.org/2000/svg" xmlns:xlink="http://www.w3.org/1999/xlink" viewBox="0 0 1024 334.97"><defs><style>.cls-1{fill:#ddd;}.cls-2{fill:url(#linear-gradient);}.cls-3{fill:#202328;}</style><linearGradient id="linear-gradient" y1="167.48" x2="1024" y2="167.48" gradientUnits="userSpaceOnUse"><stop offset="0" stop-color="#f5030d"/><stop offset="0.19" stop-color="#e52c1b"/><stop offset="0.58" stop-color="#c67d36"/><stop offset="0.86" stop-color="#b3af46"/><stop offset="1" stop-color="#abc34d"/></linearGradient></defs><rect class="cls-1" width="1024" height="334.97" rx="57.27"/><path class="cls-2" d="M995,335H29A29,29,0,0,1,0,306V29A29,29,0,0,1,29,0H995a29,29,0,0,1,29,29V306A29,29,0,0,1,995,335ZM29,13.8A15.22,15.22,0,0,0,13.8,29V306A15.22,15.22,0,0,0,29,321.17H995A15.22,15.22,0,0,0,1010.2,306V29A15.22,15.22,0,0,0,995,13.8Z"/><path class="cls-3" d="M109.56,109.21l29.54,73.84,28.22-73.84h18.13l-47.08,111-47.09-111Z"/><path class="cls-3" d="M214.55,216.68q-10.53,0-18.14-4.16A28.92,28.92,0,0,1,184.72,201a33.92,33.92,0,0,1-4.1-16.74,30.49,30.49,0,0,1,4.61-16.45,34.41,34.41,0,0,1,29.61-16.16q12.28,0,20.4,7.1t10.89,20l-47.82,16.52a18.36,18.36,0,0,0,6.95,6.58,19.75,19.75,0,0,0,9.58,2.34,21.14,21.14,0,0,0,7.6-1.39,29.36,29.36,0,0,0,6.87-3.73L236,210a43.14,43.14,0,0,1-10.31,4.9A36.27,36.27,0,0,1,214.55,216.68Zm-19.16-30.26L229.46,174a21.21,21.21,0,0,0-5.63-7.46q-3.74-3.21-10-3.22a17.35,17.35,0,0,0-13.37,5.63q-5.2,5.64-5.2,14.41A30.21,30.21,0,0,0,195.39,186.42Z"/><path class="cls-3" d="M275.81,154.1,277,168.58a29.3,29.3,0,0,1,7-9.07,35.49,35.49,0,0,1,9.14-5.85,21.33,21.33,0,0,1,8.11-2l-.73,14.63a20.49,20.49,0,0,0-12.06,2.63,22.22,22.22,0,0,0-8.12,8.19,21.73,21.73,0,0,0-2.92,11v27.2H262.65V154.1Z"/><path class="cls-3" d="M334.3,162.29a52.61,52.61,0,0,1,4.16-20.76,55.09,55.09,0,0,1,11.63-17.33,55.65,55.65,0,0,1,17.25-11.85A51.39,51.39,0,0,1,388.25,108a51.94,51.94,0,0,1,21,4.31,56.43,56.43,0,0,1,17.4,11.85,55.49,55.49,0,0,1,11.77,17.33,51.81,51.81,0,0,1,4.24,20.76,52.55,52.55,0,0,1-4.24,21.06,54.88,54.88,0,0,1-29.17,28.87,53.39,53.39,0,0,1-21,4.17,52.82,52.82,0,0,1-20.91-4.17,55.24,55.24,0,0,1-17.25-11.47,52.42,52.42,0,0,1-11.63-17.19A54.26,54.26,0,0,1,334.3,162.29Zm15.79.15a39,39,0,0,0,19,33.92,37.34,37.34,0,0,0,19.59,5.26,36.3,36.3,0,0,0,19.3-5.26,40.06,40.06,0,0,0-.22-68.29,38.32,38.32,0,0,0-38.89.08,38.83,38.83,0,0,0-13.75,14.33A40.08,40.08,0,0,0,350.09,162.44Z"/><path class="cls-3" d="M499.09,216.68a29.55,29.55,0,0,1-12.29-2.63,24,24,0,0,1-9.5-7.46v38H462.53V153.08h12.72l1.32,9.94a35.35,35.35,0,0,1,10.82-8.19,32,32,0,0,1,14.48-3.22,29.73,29.73,0,0,1,15.5,4.1,29,29,0,0,1,10.82,11.48,36.25,36.25,0,0,1,3.94,17.33,33,33,0,0,1-4.31,17.18,29.08,29.08,0,0,1-11.77,11.11A36.29,36.29,0,0,1,499.09,216.68ZM496.16,205a21.2,21.2,0,0,0,10.46-2.64,20.44,20.44,0,0,0,7.6-7.23,19.48,19.48,0,0,0,2.85-10.46A21.31,21.31,0,0,0,514.44,174a19.05,19.05,0,0,0-7.16-7.31A19.71,19.71,0,0,0,497.19,164a20,20,0,0,0-12.8,4.1A20.51,20.51,0,0,0,477.3,179v11a17.41,17.41,0,0,0,6.43,10.82A19.26,19.26,0,0,0,496.16,205Z"/><path class="cls-3" d="M600,209.52a30.19,30.19,0,0,1-9.87,5.26,36.93,36.93,0,0,1-11.63,1.9,37.94,37.94,0,0,1-17.61-3.94A28.85,28.85,0,0,1,549,201.62a32.65,32.65,0,0,1-4.24-17,31.36,31.36,0,0,1,4.53-17.11,30.91,30.91,0,0,1,11.92-11A33.66,33.66,0,0,1,577,152.64a39.86,39.86,0,0,1,13.38,2.05,31,31,0,0,1,10,5.7l-7.31,9.5a25.67,25.67,0,0,0-6.29-3.65,21.62,21.62,0,0,0-8.48-1.61,18.06,18.06,0,0,0-9.58,2.63,18.83,18.83,0,0,0-6.8,7.17,20.88,20.88,0,0,0-2.48,10.23A20.2,20.2,0,0,0,562,194.75a18.85,18.85,0,0,0,7.17,7.17,20.72,20.72,0,0,0,10.45,2.63,21.18,21.18,0,0,0,12.87-4.24Z"/><path class="cls-3" d="M616.5,132.17a7.28,7.28,0,0,1,2.71-5.71,8.88,8.88,0,0,1,5.92-2.33,8.65,8.65,0,0,1,5.85,2.33,7.39,7.39,0,0,1,2.63,5.71A7.25,7.25,0,0,1,631,138a9,9,0,0,1-5.85,2.19,9.18,9.18,0,0,1-5.92-2.19A7.14,7.14,0,0,1,616.5,132.17Zm.73,21.93H632v61.12H617.23Z"/><path class="cls-3" d="M649.84,184.08a31.92,31.92,0,0,1,4.38-16.6,31.28,31.28,0,0,1,12.14-11.62,36.22,36.22,0,0,1,17.69-4.25,35.28,35.28,0,0,1,17.62,4.25,30.11,30.11,0,0,1,11.7,11.62,33.17,33.17,0,0,1,4.17,16.6,32.77,32.77,0,0,1-4.24,16.59,31.12,31.12,0,0,1-11.77,11.7,35.25,35.25,0,0,1-17.77,4.31,37.38,37.38,0,0,1-17.33-3.94A29.91,29.91,0,0,1,654.3,201.4,32.77,32.77,0,0,1,649.84,184.08Zm14.91.14a21.33,21.33,0,0,0,2.49,10.31,19.15,19.15,0,0,0,6.8,7.31,18.65,18.65,0,0,0,23.25-3.14,20.7,20.7,0,0,0,5.33-14.48,21,21,0,0,0-5.33-14.55,17.62,17.62,0,0,0-13.68-5.92,17.25,17.25,0,0,0-9.65,2.78,19.86,19.86,0,0,0-6.72,7.46A21.44,21.44,0,0,0,664.75,184.22Z"/><path class="cls-3" d="M748.68,154.1l1,11.41a23.2,23.2,0,0,1,9.5-10,29.16,29.16,0,0,1,14.91-3.73q8.64,0,14.19,5.05A17.49,17.49,0,0,1,794,170v45.18H779.24V175.16a11.79,11.79,0,0,0-2.78-7.68q-2.62-3-8.18-3.14a16,16,0,0,0-12.95,6.43q-5.19,6.43-5.19,16.52v27.93H735.38V154.1Z"/><path class="cls-3" d="M845.92,216.68q-10.53,0-18.13-4.16A29,29,0,0,1,816.09,201,33.91,33.91,0,0,1,812,184.22a30.48,30.48,0,0,1,4.6-16.45,34.44,34.44,0,0,1,29.61-16.16q12.28,0,20.4,7.1t10.89,20l-47.81,16.52a18.33,18.33,0,0,0,6.94,6.58,19.78,19.78,0,0,0,9.58,2.34,21.1,21.1,0,0,0,7.6-1.39,29.63,29.63,0,0,0,6.88-3.73l6.72,11a43,43,0,0,1-10.31,4.9A36.27,36.27,0,0,1,845.92,216.68Zm-19.16-30.26L860.83,174a21.09,21.09,0,0,0-5.63-7.46q-3.72-3.21-10-3.22a17.38,17.38,0,0,0-13.38,5.63q-5.19,5.64-5.19,14.41C826.62,184.42,826.67,185.44,826.76,186.42Z"/><path class="cls-3" d="M911.72,216.54a34.83,34.83,0,0,1-12.87-2.42,27.9,27.9,0,0,1-10.38-6.94l6.29-8.48a28.47,28.47,0,0,0,8,5.55,18.85,18.85,0,0,0,7.82,1.91,15.81,15.81,0,0,0,7.46-1.69,5.85,5.85,0,0,0,3.21-5.63,6.1,6.1,0,0,0-2.12-5,17.78,17.78,0,0,0-5.34-2.92q-3.21-1.17-6.87-2.19-15.64-5.13-15.64-18a18.43,18.43,0,0,1,2.41-9.14,18.17,18.17,0,0,1,7.38-7,25.5,25.5,0,0,1,12.29-2.7,40.38,40.38,0,0,1,11.55,1.53,27,27,0,0,1,9.5,5.19l-5.7,8.92a17.93,17.93,0,0,0-6.22-4A21,21,0,0,0,916,162a12.76,12.76,0,0,0-6.87,1.82,5.55,5.55,0,0,0-2.93,4.9,5.94,5.94,0,0,0,3.36,5.93,53.16,53.16,0,0,0,8.05,3.29,12.71,12.71,0,0,1,1.24.36c.44.15.9.32,1.39.51a32.46,32.46,0,0,1,11.18,6q4.47,3.8,4.46,11.11a20.47,20.47,0,0,1-2.63,10.24,19.26,19.26,0,0,1-8,7.53Q919.9,216.54,911.72,216.54Z"/></svg>